LibreBaskerville-Bold.ufo
<glyph name="B" format="1">
  <advance width="797"/>
  <unicode hex="0042"/>
  <outline>
    <contour>
      <point x="33" y="0" type="line"/>
      <point x="33" y="40" type="line"/>
      <point x="123" y="43"/>
      <point x="139" y="60"/>
      <point x="139" y="154" type="curve" smooth="yes"/>
      <point x="139" y="616" type="line" smooth="yes"/>
      <point x="139" y="709"/>
      <point x="126" y="726"/>
      <point x="54" y="730" type="curve"/>
      <point x="54" y="770" type="line"/>
      <point x="375" y="770" type="line" smooth="yes"/>
      <point x="575" y="770"/>
      <point x="689" y="702"/>
      <point x="689" y="583" type="curve" smooth="yes"/>
      <point x="689" y="503"/>
      <point x="633" y="448"/>
      <point x="518" y="415" type="curve"/>
      <point x="518" y="411" type="line"/>
      <point x="593.832465768" y="411.0"/>
      <point x="655.294512049" y="387.581538615"/>
      <point x="697.032141691" y="348.43240663" type="curve" smooth="yes"/>
      <point x="736.202227435" y="311.691583784"/>
      <point x="758.0" y="261.095946312"/>
      <point x="758" y="203" type="curve" smooth="yes"/>
      <point x="758" y="135"/>
      <point x="724" y="84"/>
      <point x="663" y="50" type="curve" smooth="yes"/>
      <point x="604" y="17"/>
      <point x="521" y="0"/>
      <point x="418" y="0" type="curve" smooth="yes"/>
    </contour>
    <contour>
      <point x="425" y="61" type="curve" smooth="yes"/>
      <point x="533" y="61"/>
      <point x="586" y="108"/>
      <point x="586" y="206" type="curve" smooth="yes"/>
      <point x="586" y="265"/>
      <point x="568" y="308"/>
      <point x="528" y="336" type="curve" smooth="yes"/>
      <point x="488" y="364"/>
      <point x="425" y="375"/>
      <point x="334" y="375" type="curve" smooth="yes"/>
      <point x="286" y="375" type="line"/>
      <point x="286" y="175" type="line" smooth="yes"/>
      <point x="286" y="93"/>
      <point x="325" y="61"/>
    </contour>
    <contour>
      <point x="345" y="435" type="line" smooth="yes"/>
      <point x="405" y="435"/>
      <point x="449" y="447"/>
      <point x="479" y="468" type="curve" smooth="yes"/>
      <point x="512" y="491"/>
      <point x="527" y="526"/>
      <point x="527" y="571" type="curve" smooth="yes"/>
      <point x="527" y="668"/>
      <point x="481" y="709"/>
      <point x="375" y="709" type="curve" smooth="yes"/>
      <point x="304" y="709" type="line" smooth="yes"/>
      <point x="293" y="709"/>
      <point x="286" y="702"/>
      <point x="286" y="692" type="curve" smooth="yes"/>
      <point x="286" y="435" type="line"/>
    </contour>
  </outline>
</glyph>
<glyph name="f" format="1">
  <advance width="443"/>
  <unicode hex="0066"/>
  <outline>
    <contour>
      <point x="17" y="475" type="line"/>
      <point x="125" y="475" type="line"/>
      <point x="125" y="158" type="line" smooth="yes"/>
      <point x="125" y="57"/>
      <point x="115" y="44"/>
      <point x="35" y="40" type="curve"/>
      <point x="35" y="0" type="line"/>
      <point x="373" y="0" type="line"/>
      <point x="373" y="40" type="line"/>
      <point x="285" y="42"/>
      <point x="264" y="66"/>
      <point x="264" y="166" type="curve" smooth="yes"/>
      <point x="264" y="475" type="line"/>
      <point x="433" y="475" type="line"/>
      <point x="433" y="530" type="line"/>
      <point x="264" y="530" type="line"/>
      <point x="264" y="592" type="line" smooth="yes"/>
      <point x="264.0" y="635.645144463"/>
      <point x="269.011292647" y="672.912280102"/>
      <point x="278.264575535" y="702.144447892" type="curve" smooth="yes"/>
      <point x="292.756607188" y="747.926415873"/>
      <point x="317.653505862" y="774.0"/>
      <point x="350" y="774" type="curve" smooth="yes"/>
      <point x="369" y="774"/>
      <point x="386" y="767"/>
      <point x="402" y="748" type="curve" smooth="yes"/>
      <point x="438" y="705"/>
      <point x="450" y="692"/>
      <point x="474" y="692" type="curve" smooth="yes"/>
      <point x="508" y="692"/>
      <point x="534" y="715"/>
      <point x="534" y="745" type="curve" smooth="yes"/>
      <point x="534" y="794"/>
      <point x="468" y="830"/>
      <point x="378" y="830" type="curve" smooth="yes"/>
      <point x="227" y="830"/>
      <point x="125" y="731"/>
      <point x="125" y="586" type="curve" smooth="yes"/>
      <point x="125" y="530" type="line"/>
      <point x="17" y="530" type="line"/>
    </contour>
  </outline>
</glyph>
<glyph name="g" format="1">
  <advance width="610"/>
  <unicode hex="0067"/>
  <outline>
    <contour>
      <point x="276" y="230" type="curve" smooth="yes"/>
      <point x="231" y="230"/>
      <point x="201" y="282"/>
      <point x="201" y="361" type="curve" smooth="yes"/>
      <point x="201" y="439"/>
      <point x="230" y="488"/>
      <point x="275" y="488" type="curve" smooth="yes"/>
      <point x="319" y="488"/>
      <point x="344" y="441"/>
      <point x="344" y="359" type="curve" smooth="yes"/>
      <point x="344" y="278"/>
      <point x="319" y="230"/>
    </contour>
    <contour>
      <point x="228" y="108" type="line" smooth="yes"/>
      <point x="197" y="112"/>
      <point x="183" y="120"/>
      <point x="183" y="136" type="curve" smooth="yes"/>
      <point x="183" y="157"/>
      <point x="205" y="166"/>
      <point x="268" y="173" type="curve" smooth="yes"/>
      <point x="419" y="190"/>
      <point x="480" y="264"/>
      <point x="480" y="364" type="curve" smooth="yes"/>
      <point x="480" y="398"/>
      <point x="475" y="423"/>
      <point x="462" y="446" type="curve"/>
      <point x="474" y="463"/>
      <point x="489" y="473"/>
      <point x="502" y="473" type="curve" smooth="yes"/>
      <point x="542" y="473"/>
      <point x="545" y="430"/>
      <point x="585" y="430" type="curve" smooth="yes"/>
      <point x="613" y="430"/>
      <point x="632" y="450"/>
      <point x="632" y="478" type="curve" smooth="yes"/>
      <point x="632" y="515"/>
      <point x="598" y="540"/>
      <point x="547" y="540" type="curve" smooth="yes"/>
      <point x="514" y="540"/>
      <point x="486" y="529"/>
      <point x="425" y="491" type="curve"/>
      <point x="386" y="521"/>
      <point x="328" y="540"/>
      <point x="271" y="540" type="curve" smooth="yes"/>
      <point x="154" y="540"/>
      <point x="66" y="465"/>
      <point x="66" y="365" type="curve" smooth="yes"/>
      <point x="66" y="297"/>
      <point x="109" y="231"/>
      <point x="169" y="207" type="curve"/>
      <point x="169" y="203" type="line"/>
      <point x="114" y="183"/>
      <point x="67" y="145"/>
      <point x="67" y="90" type="curve"/>
      <point x="67" y="45"/>
      <point x="98" y="12"/>
      <point x="178" y="1" type="curve" smooth="yes"/>
      <point x="353" y="-23" type="line" smooth="yes"/>
      <point x="415" y="-31"/>
      <point x="450" y="-55"/>
      <point x="450" y="-100" type="curve" smooth="yes"/>
      <point x="450" y="-163"/>
      <point x="399" y="-206"/>
      <point x="290" y="-206" type="curve" smooth="yes"/>
      <point x="199" y="-206"/>
      <point x="150" y="-176"/>
      <point x="150" y="-123" type="curve" smooth="yes"/>
      <point x="150" y="-90"/>
      <point x="174" y="-63"/>
      <point x="209" y="-56" type="curve"/>
      <point x="187" y="-30"/>
      <point x="152" y="-15"/>
      <point x="117" y="-15" type="curve" smooth="yes"/>
      <point x="63" y="-15"/>
      <point x="22" y="-50"/>
      <point x="22" y="-109" type="curve"/>
      <point x="22" y="-194"/>
      <point x="117" y="-260"/>
      <point x="282" y="-260" type="curve" smooth="yes"/>
      <point x="462" y="-260"/>
      <point x="558" y="-179"/>
      <point x="558" y="-66" type="curve"/>
      <point x="558" y="17"/>
      <point x="508" y="75"/>
      <point x="391" y="89" type="curve" smooth="yes"/>
    </contour>
  </outline>
</glyph>
<glyph name="k" format="1">
  <advance width="664"/>
  <unicode hex="006B"/>
  <outline>
    <contour>
      <point x="358" y="0" type="line"/>
      <point x="669" y="0" type="line"/>
      <point x="669" y="40" type="line"/>
      <point x="620" y="40"/>
      <point x="596" y="53"/>
      <point x="566" y="96" type="curve" smooth="yes"/>
      <point x="393" y="341" type="line"/>
      <point x="490" y="432" type="line" smooth="yes"/>
      <point x="536" y="475"/>
      <point x="570" y="490"/>
      <point x="620" y="490" type="curve"/>
      <point x="620" y="530" type="line"/>
      <point x="347" y="530" type="line"/>
      <point x="347" y="490" type="line"/>
      <point x="411" y="490"/>
      <point x="430" y="485"/>
      <point x="430" y="469" type="curve" smooth="yes"/>
      <point x="430" y="455"/>
      <point x="412" y="435"/>
      <point x="338" y="365" type="curve" smooth="yes"/>
      <point x="242" y="274" type="line"/>
      <point x="242" y="830" type="line"/>
      <point x="12" y="792" type="line"/>
      <point x="12" y="758" type="line"/>
      <point x="73" y="758"/>
      <point x="91" y="750"/>
      <point x="98" y="717" type="curve" smooth="yes"/>
      <point x="102" y="699"/>
      <point x="105" y="647"/>
      <point x="105" y="570" type="curve"/>
      <point x="105" y="157" type="line"/>
      <point x="105" y="62"/>
      <point x="92" y="40"/>
      <point x="26" y="40" type="curve"/>
      <point x="26" y="0" type="line"/>
      <point x="311" y="0" type="line"/>
      <point x="311" y="40" type="line"/>
      <point x="254" y="40"/>
      <point x="242" y="61"/>
      <point x="242" y="164" type="curve" smooth="yes"/>
      <point x="242" y="203" type="line"/>
      <point x="292" y="251" type="line"/>
      <point x="378" y="116" type="line" smooth="yes"/>
      <point x="406" y="72"/>
      <point x="409" y="66"/>
      <point x="409" y="58" type="curve" smooth="yes"/>
      <point x="409" y="44"/>
      <point x="398" y="40"/>
      <point x="358" y="40" type="curve"/>
    </contour>
    <contour>
      <point x="345.0" y="0.0" type="move" name="bottom"/>
    </contour>
  </outline>
</glyph>
<glyph name="s" format="1">
  <advance width="466"/>
  <unicode hex="0073"/>
  <outline>
    <contour>
      <point x="107" y="35" type="line"/>
      <point x="139" y="6"/>
      <point x="191" y="-10"/>
      <point x="248" y="-10" type="curve" smooth="yes"/>
      <point x="358" y="-10"/>
      <point x="430" y="51"/>
      <point x="430" y="143" type="curve" smooth="yes"/>
      <point x="430" y="215"/>
      <point x="387" y="266"/>
      <point x="279" y="324" type="curve" smooth="yes"/>
      <point x="204" y="364"/>
      <point x="173" y="395"/>
      <point x="173" y="432" type="curve" smooth="yes"/>
      <point x="173" y="465"/>
      <point x="196" y="487"/>
      <point x="236" y="487" type="curve"/>
      <point x="295" y="487"/>
      <point x="328" y="456"/>
      <point x="359" y="380" type="curve"/>
      <point x="398" y="380" type="line"/>
      <point x="398" y="531" type="line"/>
      <point x="372" y="531" type="line"/>
      <point x="354" y="507" type="line"/>
      <point x="324" y="528"/>
      <point x="280" y="541"/>
      <point x="226" y="541" type="curve"/>
      <point x="130" y="541"/>
      <point x="58" y="475"/>
      <point x="58" y="386" type="curve" smooth="yes"/>
      <point x="58" y="318"/>
      <point x="99" y="268"/>
      <point x="200" y="213" type="curve" smooth="yes"/>
      <point x="274" y="173"/>
      <point x="306" y="139"/>
      <point x="306" y="102" type="curve" smooth="yes"/>
      <point x="306" y="66"/>
      <point x="277" y="44"/>
      <point x="228" y="44" type="curve" smooth="yes"/>
      <point x="160" y="44"/>
      <point x="119" y="87"/>
      <point x="96" y="182" type="curve"/>
      <point x="54" y="182" type="line"/>
      <point x="54" y="0" type="line"/>
      <point x="85" y="0" type="line"/>
    </contour>
    <contour>
      <point x="222" y="651" type="move" name="top"/>
    </contour>
    <contour>
      <point x="240" y="1" type="move" name="bottom"/>
    </contour>
  </outline>
</glyph>
<glyph name="v" format="1">
  <advance width="624"/>
  <unicode hex="0076"/>
  <outline>
    <contour>
      <point x="259" y="-10" type="line"/>
      <point x="350" y="-10" type="line"/>
      <point x="537" y="414" type="line" smooth="yes"/>
      <point x="545.503228664" y="433.435951233"/>
      <point x="553.545329155" y="448.076169454"/>
      <point x="561.63044011" y="459.040962751" type="curve" smooth="yes"/>
      <point x="580.168523202" y="484.181774094"/>
      <point x="598.932722569" y="490.0"/>
      <point x="624" y="490" type="curve"/>
      <point x="624" y="530" type="line"/>
      <point x="403" y="530" type="line"/>
      <point x="403" y="490" type="line"/>
      <point x="453" y="489"/>
      <point x="471" y="476"/>
      <point x="471" y="447" type="curve" smooth="yes"/>
      <point x="471" y="432"/>
      <point x="465" y="414"/>
      <point x="456" y="392" type="curve" smooth="yes"/>
      <point x="349" y="131" type="line"/>
      <point x="345" y="131" type="line"/>
      <point x="250" y="393" type="line" smooth="yes"/>
      <point x="241" y="416"/>
      <point x="233" y="440"/>
      <point x="233" y="457" type="curve" smooth="yes"/>
      <point x="233" y="479"/>
      <point x="239" y="490"/>
      <point x="306" y="490" type="curve"/>
      <point x="306" y="530" type="line"/>
      <point x="7" y="530" type="line"/>
      <point x="7" y="490" type="line"/>
      <point x="53" y="490"/>
      <point x="71" y="478"/>
      <point x="101" y="401" type="curve" smooth="yes"/>
    </contour>
  </outline>
</glyph>
<glyph name="Eth" format="1">
  <advance width="920"/>
  <unicode hex="00D0"/>
  <outline>
    <contour>
      <point x="36" y="0" type="line"/>
      <point x="453" y="0" type="line" smooth="yes"/>
      <point x="701" y="0"/>
      <point x="874" y="153"/>
      <point x="874" y="372" type="curve" smooth="yes"/>
      <point x="874" y="602"/>
      <point x="688" y="770"/>
      <point x="432" y="770" type="curve" smooth="yes"/>
      <point x="52" y="770" type="line"/>
      <point x="52" y="730" type="line"/>
      <point x="128" y="726"/>
      <point x="141" y="709"/>
      <point x="141" y="616" type="curve" smooth="yes"/>
      <point x="141" y="436" type="line"/>
      <point x="54" y="436" type="line"/>
      <point x="54" y="376" type="line"/>
      <point x="141" y="376" type="line"/>
      <point x="141" y="154" type="line" smooth="yes"/>
      <point x="141" y="59"/>
      <point x="124" y="43"/>
      <point x="36" y="40" type="curve"/>
    </contour>
    <contour>
      <point x="435" y="61" type="curve" smooth="yes"/>
      <point x="335" y="61"/>
      <point x="288" y="98"/>
      <point x="288" y="175" type="curve" smooth="yes"/>
      <point x="288" y="376" type="line"/>
      <point x="421" y="376" type="line"/>
      <point x="421" y="436" type="line"/>
      <point x="288" y="436" type="line"/>
      <point x="288" y="692" type="line" smooth="yes"/>
      <point x="288" y="702"/>
      <point x="294" y="709"/>
      <point x="305" y="709" type="curve" smooth="yes"/>
      <point x="430" y="709" type="line" smooth="yes"/>
      <point x="602" y="709"/>
      <point x="707" y="583"/>
      <point x="707" y="370" type="curve" smooth="yes"/>
      <point x="707" y="170"/>
      <point x="609" y="61"/>
    </contour>
  </outline>
</glyph>
<glyph name="Oslash" format="1">
  <advance width="943"/>
  <unicode hex="00D8"/>
  <outline>
    <contour>
      <point x="472" y="-10" type="curve" smooth="yes"/>
      <point x="710" y="-10"/>
      <point x="899" y="162"/>
      <point x="899" y="379" type="curve" smooth="yes"/>
      <point x="899" y="498"/>
      <point x="847" y="603"/>
      <point x="763" y="676" type="curve"/>
      <point x="891" y="830" type="line"/>
      <point x="802" y="830" type="line"/>
      <point x="707" y="716" type="line"/>
      <point x="640" y="757"/>
      <point x="560" y="780"/>
      <point x="472" y="780" type="curve" smooth="yes"/>
      <point x="232" y="780"/>
      <point x="45" y="605"/>
      <point x="45" y="379" type="curve" smooth="yes"/>
      <point x="45" y="262"/>
      <point x="100" y="159"/>
      <point x="187" y="88" type="curve"/>
      <point x="47" y="-81" type="line"/>
      <point x="135" y="-81" type="line"/>
      <point x="243" y="49" type="line"/>
      <point x="309" y="12"/>
      <point x="387" y="-10"/>
    </contour>
    <contour>
      <point x="219" y="376" type="curve" smooth="yes"/>
      <point x="219" y="584"/>
      <point x="316" y="715"/>
      <point x="472" y="715" type="curve" smooth="yes"/>
      <point x="543" y="715"/>
      <point x="601" y="688"/>
      <point x="644" y="639" type="curve"/>
      <point x="263" y="179" type="line"/>
      <point x="234" y="231"/>
      <point x="219" y="298"/>
    </contour>
    <contour>
      <point x="472" y="55" type="curve" smooth="yes"/>
      <point x="403" y="55"/>
      <point x="346" y="79"/>
      <point x="304" y="122" type="curve"/>
      <point x="684" y="580" type="line"/>
      <point x="710" y="526"/>
      <point x="725" y="457"/>
      <point x="725" y="376" type="curve" smooth="yes"/>
      <point x="725" y="179"/>
      <point x="627" y="55"/>
    </contour>
  </outline>
</glyph>
<glyph name="germandbls" format="1">
  <advance width="711"/>
  <unicode hex="00DF"/>
  <outline>
    <contour>
      <point x="358" y="830" type="curve" smooth="yes"/>
      <point x="198" y="830"/>
      <point x="107" y="742"/>
      <point x="107" y="586" type="curve" smooth="yes"/>
      <point x="107" y="156" type="line" smooth="yes"/>
      <point x="107" y="56"/>
      <point x="95" y="41"/>
      <point x="16" y="41" type="curve"/>
      <point x="16" y="0" type="line"/>
      <point x="294" y="0" type="line"/>
      <point x="294" y="41" type="line"/>
      <point x="255" y="41"/>
      <point x="246" y="65"/>
      <point x="246" y="164" type="curve" smooth="yes"/>
      <point x="246" y="592" type="line" smooth="yes"/>
      <point x="246.0" y="644.214585423"/>
      <point x="251.49531455" y="683.721255951"/>
      <point x="263.482247715" y="712.085632257" type="curve" smooth="yes"/>
      <point x="280.421208848" y="752.167866905"/>
      <point x="310.323314786" y="770.0"/>
      <point x="356" y="770" type="curve" smooth="yes"/>
      <point x="429" y="770"/>
      <point x="463" y="726"/>
      <point x="463" y="633" type="curve" smooth="yes"/>
      <point x="463" y="536"/>
      <point x="425" y="492"/>
      <point x="342" y="492" type="curve"/>
      <point x="342" y="431" type="line"/>
      <point x="456" y="431"/>
      <point x="522" y="351"/>
      <point x="522" y="211" type="curve" smooth="yes"/>
      <point x="522" y="116"/>
      <point x="494" y="46"/>
      <point x="455" y="46" type="curve" smooth="yes"/>
      <point x="433.668776453" y="46.0"/>
      <point x="426.142476165" y="66.8427272745"/>
      <point x="415.943968204" y="86.8403342708" type="curve" smooth="yes"/>
      <point x="406.540280094" y="105.279429465"/>
      <point x="394.864670277" y="123.0"/>
      <point x="368" y="123" type="curve" smooth="yes"/>
      <point x="339" y="123"/>
      <point x="321" y="104"/>
      <point x="321" y="76" type="curve" smooth="yes"/>
      <point x="321" y="25"/>
      <point x="373" y="-10"/>
      <point x="449" y="-10" type="curve" smooth="yes"/>
      <point x="578" y="-10"/>
      <point x="673" y="89"/>
      <point x="673" y="223" type="curve" smooth="yes"/>
      <point x="673" y="357"/>
      <point x="581" y="462"/>
      <point x="462" y="462" type="curve"/>
      <point x="462" y="467" type="line"/>
      <point x="559" y="485"/>
      <point x="614" y="546"/>
      <point x="614" y="636" type="curve" smooth="yes"/>
      <point x="614" y="752"/>
      <point x="512" y="830"/>
    </contour>
  </outline>
</glyph>
<glyph name="oslash" format="1">
  <advance width="658"/>
  <unicode hex="00F8"/>
  <outline>
    <contour>
      <point x="327" y="540" type="curve" smooth="yes"/>
      <point x="169" y="540"/>
      <point x="36" y="427"/>
      <point x="36" y="269" type="curve" smooth="yes"/>
      <point x="36" y="185"/>
      <point x="71" y="114"/>
      <point x="127" y="64" type="curve"/>
      <point x="23" y="-61" type="line"/>
      <point x="103" y="-61" type="line"/>
      <point x="177" y="28" type="line"/>
      <point x="221" y="4"/>
      <point x="273" y="-10"/>
      <point x="327" y="-10" type="curve" smooth="yes"/>
      <point x="486" y="-10"/>
      <point x="622" y="107"/>
      <point x="622" y="269" type="curve" smooth="yes"/>
      <point x="622" y="346"/>
      <point x="589" y="413"/>
      <point x="537" y="461" type="curve"/>
      <point x="646" y="592" type="line"/>
      <point x="565" y="592" type="line"/>
      <point x="487" y="498" type="line"/>
      <point x="440" y="525"/>
      <point x="385" y="540"/>
    </contour>
    <contour>
      <point x="327" y="482" type="curve" smooth="yes"/>
      <point x="368" y="482"/>
      <point x="402" y="461"/>
      <point x="426" y="424" type="curve"/>
      <point x="207" y="161" type="line"/>
      <point x="198" y="191"/>
      <point x="193" y="227"/>
      <point x="193" y="268" type="curve" smooth="yes"/>
      <point x="193" y="396"/>
      <point x="246" y="482"/>
    </contour>
    <contour>
      <point x="465" y="268" type="curve" smooth="yes"/>
      <point x="465" y="137"/>
      <point x="411" y="51"/>
      <point x="327" y="51" type="curve" smooth="yes"/>
      <point x="290" y="51"/>
      <point x="259" y="68"/>
      <point x="236" y="99" type="curve"/>
      <point x="454" y="361" type="line"/>
      <point x="461" y="333"/>
      <point x="465" y="302"/>
    </contour>
  </outline>
</glyph>
<glyph name="Dcroat" format="1">
  <advance width="920"/>
  <unicode hex="0110"/>
  <outline>
    <contour>
      <point x="54" y="370" type="line"/>
      <point x="54" y="430" type="line"/>
      <point x="141" y="430" type="line"/>
      <point x="141" y="616" type="line" smooth="yes"/>
      <point x="141" y="709"/>
      <point x="128" y="726"/>
      <point x="52" y="730" type="curve"/>
      <point x="52" y="770" type="line"/>
      <point x="432" y="770" type="line" smooth="yes"/>
      <point x="688" y="770"/>
      <point x="874" y="602"/>
      <point x="874" y="372" type="curve" smooth="yes"/>
      <point x="874" y="153"/>
      <point x="701" y="0"/>
      <point x="453" y="0" type="curve" smooth="yes"/>
      <point x="36" y="0" type="line"/>
      <point x="36" y="40" type="line"/>
      <point x="124" y="43"/>
      <point x="141" y="59"/>
      <point x="141" y="154" type="curve" smooth="yes"/>
      <point x="141" y="370" type="line"/>
    </contour>
    <contour>
      <point x="305" y="709" type="line" smooth="yes"/>
      <point x="294" y="709"/>
      <point x="288" y="702"/>
      <point x="288" y="692" type="curve" smooth="yes"/>
      <point x="288" y="430" type="line"/>
      <point x="421" y="430" type="line"/>
      <point x="421" y="370" type="line"/>
      <point x="288" y="370" type="line"/>
      <point x="288" y="175" type="line" smooth="yes"/>
      <point x="288" y="98"/>
      <point x="335" y="61"/>
      <point x="435" y="61" type="curve" smooth="yes"/>
      <point x="609" y="61"/>
      <point x="707" y="170"/>
      <point x="707" y="370" type="curve" smooth="yes"/>
      <point x="707" y="583"/>
      <point x="602" y="709"/>
      <point x="430" y="709" type="curve" smooth="yes"/>
    </contour>
  </outline>
</glyph>
<glyph name="lacute" format="1">
  <advance width="355"/>
  <unicode hex="013A"/>
  <outline>
    <contour>
      <point x="247" y="830" type="line"/>
      <point x="15" y="792" type="line"/>
      <point x="15" y="758" type="line"/>
      <point x="76" y="758"/>
      <point x="94" y="750"/>
      <point x="101" y="717" type="curve" smooth="yes"/>
      <point x="105" y="699"/>
      <point x="108" y="647"/>
      <point x="108" y="570" type="curve" smooth="yes"/>
      <point x="108" y="157" type="line" smooth="yes"/>
      <point x="108" y="63"/>
      <point x="94" y="44"/>
      <point x="19" y="40" type="curve"/>
      <point x="19" y="0" type="line"/>
      <point x="334" y="0" type="line"/>
      <point x="334" y="40" type="line"/>
      <point x="257" y="43"/>
      <point x="247" y="58"/>
      <point x="247" y="164" type="curve" smooth="yes"/>
    </contour>
    <component base="acute.cap" xOffset="57"/>
  </outline>
</glyph>
<glyph name="apostrophe" format="1">
  <advance width="204"/>
  <unicode hex="02BC"/>
  <outline>
    <contour>
      <point x="123" y="596" type="line"/>
      <point x="131.975445325" y="654.340394611"/>
      <point x="158.0" y="735.724985395"/>
      <point x="158" y="770" type="curve" smooth="yes"/>
      <point x="158" y="805"/>
      <point x="134" y="830"/>
      <point x="102" y="830" type="curve" smooth="yes"/>
      <point x="70" y="830"/>
      <point x="46" y="805"/>
      <point x="46" y="771" type="curve" smooth="yes"/>
      <point x="46.0" y="736.226802653"/>
      <point x="73.1816997956" y="653.318951329"/>
      <point x="82" y="596" type="curve"/>
    </contour>
  </outline>
</glyph>
<glyph name="tilde" format="1">
  <advance width="401"/>
  <unicode hex="02DC"/>
  <outline>
    <contour>
      <point x="57" y="660" type="line"/>
      <point x="67" y="690"/>
      <point x="78" y="700"/>
      <point x="101" y="700" type="curve" smooth="yes"/>
      <point x="150.942067284" y="700.0"/>
      <point x="230.10376034" y="652.0"/>
      <point x="273" y="652" type="curve" smooth="yes"/>
      <point x="333.709252048" y="652.0"/>
      <point x="380.115478561" y="720.808349928"/>
      <point x="390" y="790" type="curve"/>
      <point x="345" y="790" type="line"/>
      <point x="335" y="759"/>
      <point x="321" y="748"/>
      <point x="296" y="748" type="curve" smooth="yes"/>
      <point x="256.124065032" y="748.0"/>
      <point x="164.633617512" y="794.0"/>
      <point x="130" y="794" type="curve" smooth="yes"/>
      <point x="73" y="794"/>
      <point x="24" y="738"/>
      <point x="11" y="660" type="curve"/>
    </contour>
    <contour>
      <point x="202" y="651" type="move" name="_top"/>
    </contour>
  </outline>
</glyph>
<glyph name="perthousand" format="1">
  <advance width="968"/>
  <unicode hex="2030"/>
  <outline>
    <contour>
      <point x="682" y="770" type="line"/>
      <point x="611" y="770" type="line"/>
      <point x="31" y="0" type="line"/>
      <point x="111" y="0" type="line"/>
    </contour>
    <contour>
      <point x="215" y="780" type="curve" smooth="yes"/>
      <point x="145" y="780"/>
      <point x="86" y="710"/>
      <point x="86" y="620" type="curve" smooth="yes"/>
      <point x="86" y="533"/>
      <point x="145" y="464"/>
      <point x="215" y="464" type="curve" smooth="yes"/>
      <point x="286" y="464"/>
      <point x="344" y="533"/>
      <point x="344" y="620" type="curve" smooth="yes"/>
      <point x="344" y="710"/>
      <point x="286" y="780"/>
    </contour>
    <contour>
      <point x="215" y="499" type="curve" smooth="yes"/>
      <point x="180" y="499"/>
      <point x="161" y="526"/>
      <point x="161" y="618" type="curve" smooth="yes"/>
      <point x="161" y="715"/>
      <point x="180" y="745"/>
      <point x="215" y="745" type="curve" smooth="yes"/>
      <point x="250" y="745"/>
      <point x="269" y="715"/>
      <point x="269" y="618" type="curve" smooth="yes"/>
      <point x="269" y="526"/>
      <point x="249" y="499"/>
    </contour>
    <contour>
      <point x="805" y="306" type="curve" smooth="yes"/>
      <point x="735" y="306"/>
      <point x="676" y="236"/>
      <point x="676" y="146" type="curve" smooth="yes"/>
      <point x="676" y="59"/>
      <point x="735" y="-10"/>
      <point x="805" y="-10" type="curve" smooth="yes"/>
      <point x="875" y="-10"/>
      <point x="934" y="59"/>
      <point x="934" y="146" type="curve" smooth="yes"/>
      <point x="934" y="236"/>
      <point x="875" y="306"/>
    </contour>
    <contour>
      <point x="805" y="25" type="curve" smooth="yes"/>
      <point x="770" y="25"/>
      <point x="751" y="52"/>
      <point x="751" y="144" type="curve" smooth="yes"/>
      <point x="751" y="241"/>
      <point x="770" y="271"/>
      <point x="805" y="271" type="curve" smooth="yes"/>
      <point x="840" y="271"/>
      <point x="859" y="241"/>
      <point x="859" y="144" type="curve" smooth="yes"/>
      <point x="859" y="52"/>
      <point x="839" y="25"/>
    </contour>
    <contour>
      <point x="499" y="306" type="curve" smooth="yes"/>
      <point x="429" y="306"/>
      <point x="370" y="236"/>
      <point x="370" y="146" type="curve" smooth="yes"/>
      <point x="370" y="59"/>
      <point x="429" y="-10"/>
      <point x="499" y="-10" type="curve" smooth="yes"/>
      <point x="569" y="-10"/>
      <point x="628" y="59"/>
      <point x="628" y="146" type="curve" smooth="yes"/>
      <point x="628" y="236"/>
      <point x="569" y="306"/>
    </contour>
    <contour>
      <point x="499" y="25" type="curve" smooth="yes"/>
      <point x="464" y="25"/>
      <point x="445" y="52"/>
      <point x="445" y="144" type="curve" smooth="yes"/>
      <point x="445" y="241"/>
      <point x="464" y="271"/>
      <point x="499" y="271" type="curve" smooth="yes"/>
      <point x="534" y="271"/>
      <point x="553" y="241"/>
      <point x="553" y="144" type="curve" smooth="yes"/>
      <point x="553" y="52"/>
      <point x="533" y="25"/>
    </contour>
  </outline>
</glyph>
<glyph name="f_f" format="1">
  <advance width="772"/>
  <unicode hex="FB00"/>
  <outline>
    <contour>
      <point x="265" y="457" type="line"/>
      <point x="462" y="457" type="line"/>
      <point x="462" y="158" type="line" smooth="yes"/>
      <point x="462" y="59"/>
      <point x="454" y="43"/>
      <point x="401" y="40" type="curve"/>
      <point x="401" y="0" type="line"/>
      <point x="700" y="0" type="line"/>
      <point x="700" y="40" type="line"/>
      <point x="620" y="42"/>
      <point x="601" y="66"/>
      <point x="601" y="166" type="curve" smooth="yes"/>
      <point x="601" y="457" type="line"/>
      <point x="758" y="457" type="line"/>
      <point x="758" y="514" type="line"/>
      <point x="601" y="514" type="line"/>
      <point x="601" y="592" type="line" smooth="yes"/>
      <point x="601.0" y="649.644046664"/>
      <point x="607.979281907" y="690.537816752"/>
      <point x="620.261537171" y="718.616991206" type="curve" smooth="yes"/>
      <point x="637.383033456" y="757.759434576"/>
      <point x="664.809497535" y="772.0"/>
      <point x="698" y="772" type="curve" smooth="yes"/>
      <point x="718" y="772"/>
      <point x="730" y="763"/>
      <point x="757" y="728" type="curve" smooth="yes"/>
      <point x="777" y="702"/>
      <point x="800" y="688"/>
      <point x="832" y="688" type="curve" smooth="yes"/>
      <point x="859" y="688"/>
      <point x="882" y="705"/>
      <point x="882" y="741" type="curve" smooth="yes"/>
      <point x="882" y="795"/>
      <point x="823" y="830"/>
      <point x="732" y="830" type="curve" smooth="yes"/>
      <point x="641" y="830"/>
      <point x="547" y="801"/>
      <point x="498" y="757" type="curve"/>
      <point x="463" y="781"/>
      <point x="431" y="790"/>
      <point x="381" y="790" type="curve" smooth="yes"/>
      <point x="225" y="790"/>
      <point x="126" y="696"/>
      <point x="126" y="546" type="curve" smooth="yes"/>
      <point x="126" y="514" type="line"/>
      <point x="19" y="514" type="line"/>
      <point x="19" y="457" type="line"/>
      <point x="126" y="457" type="line"/>
      <point x="126" y="158" type="line" smooth="yes"/>
      <point x="126" y="57"/>
      <point x="116" y="44"/>
      <point x="37" y="40" type="curve"/>
      <point x="37" y="0" type="line"/>
      <point x="340" y="0" type="line"/>
      <point x="340" y="40" type="line"/>
      <point x="280" y="42"/>
      <point x="265" y="67"/>
      <point x="265" y="166" type="curve" smooth="yes"/>
    </contour>
    <contour>
      <point x="265" y="514" type="line"/>
      <point x="265" y="552" type="line" smooth="yes"/>
      <point x="265.0" y="598.246256232"/>
      <point x="268.455912629" y="636.593283598"/>
      <point x="276.769694211" y="665.839405249" type="curve" smooth="yes"/>
      <point x="288.949919659" y="708.686856999"/>
      <point x="311.557141602" y="732.0"/>
      <point x="349" y="732" type="curve" smooth="yes"/>
      <point x="379.267141461" y="732.0"/>
      <point x="405.093355661" y="723.118145477"/>
      <point x="436.584971445" y="690.194943162" type="curve" smooth="yes"/>
      <point x="444.630667148" y="681.783495835"/>
      <point x="453.046163797" y="671.802784085"/>
      <point x="462" y="660" type="curve"/>
      <point x="462" y="514" type="line"/>
    </contour>
  </outline>
</glyph>
<glyph name="f_f_l" format="1">
  <advance width="1048"/>
  <unicode hex="FB04"/>
  <outline>
    <contour>
      <point x="940" y="830" type="line"/>
      <point x="867" y="807" type="line"/>
      <point x="834" y="822"/>
      <point x="788" y="830"/>
      <point x="732" y="830" type="curve" smooth="yes"/>
      <point x="641" y="830"/>
      <point x="547" y="801"/>
      <point x="498" y="757" type="curve"/>
      <point x="463" y="781"/>
      <point x="431" y="790"/>
      <point x="381" y="790" type="curve" smooth="yes"/>
      <point x="225" y="790"/>
      <point x="126" y="696"/>
      <point x="126" y="546" type="curve" smooth="yes"/>
      <point x="126" y="514" type="line"/>
      <point x="19" y="514" type="line"/>
      <point x="19" y="457" type="line"/>
      <point x="126" y="457" type="line"/>
      <point x="126" y="158" type="line" smooth="yes"/>
      <point x="126" y="57"/>
      <point x="116" y="44"/>
      <point x="37" y="40" type="curve"/>
      <point x="37" y="0" type="line"/>
      <point x="340" y="0" type="line"/>
      <point x="340" y="40" type="line"/>
      <point x="280" y="42"/>
      <point x="265" y="67"/>
      <point x="265" y="166" type="curve" smooth="yes"/>
      <point x="265" y="457" type="line"/>
      <point x="462" y="457" type="line"/>
      <point x="462" y="158" type="line" smooth="yes"/>
      <point x="462" y="59"/>
      <point x="453" y="43"/>
      <point x="391" y="40" type="curve"/>
      <point x="391" y="0" type="line"/>
      <point x="685" y="0" type="line"/>
      <point x="685" y="40" type="line"/>
      <point x="617" y="42"/>
      <point x="601" y="66"/>
      <point x="601" y="166" type="curve" smooth="yes"/>
      <point x="601" y="457" type="line"/>
      <point x="733" y="457" type="line"/>
      <point x="733" y="514" type="line"/>
      <point x="601" y="514" type="line"/>
      <point x="601" y="592" type="line" smooth="yes"/>
      <point x="601.0" y="661.0"/>
      <point x="611.0" y="706.0"/>
      <point x="628.125" y="733.75" type="curve" smooth="yes"/>
      <point x="645.25" y="761.5"/>
      <point x="669.5" y="772.0"/>
      <point x="698" y="772" type="curve" smooth="yes"/>
      <point x="720.089359283" y="772.0"/>
      <point x="745.037740795" y="765.328948135"/>
      <point x="769.226948382" y="750.342209791" type="curve" smooth="yes"/>
      <point x="780.079709775" y="743.618240239"/>
      <point x="790.779651761" y="735.220348239"/>
      <point x="801" y="725" type="curve"/>
      <point x="801" y="157" type="line" smooth="yes"/>
      <point x="801" y="64"/>
      <point x="791" y="44"/>
      <point x="732" y="40" type="curve"/>
      <point x="732" y="0" type="line"/>
      <point x="1027" y="0" type="line"/>
      <point x="1027" y="40" type="line"/>
      <point x="950" y="43"/>
      <point x="940" y="59"/>
      <point x="940" y="164" type="curve" smooth="yes"/>
    </contour>
    <contour>
      <point x="265" y="514" type="line"/>
      <point x="265" y="552" type="line" smooth="yes"/>
      <point x="265.0" y="609.0"/>
      <point x="270.25" y="654.0"/>
      <point x="283.375" y="684.75" type="curve" smooth="yes"/>
      <point x="296.5" y="715.5"/>
      <point x="317.5" y="732.0"/>
      <point x="349" y="732" type="curve" smooth="yes"/>
      <point x="379.096622705" y="732.0"/>
      <point x="404.80221571" y="723.217940598"/>
      <point x="436.053257525" y="690.749104029" type="curve" smooth="yes"/>
      <point x="444.259785437" y="682.222783045"/>
      <point x="452.848721027" y="672.063049555"/>
      <point x="462" y="660" type="curve"/>
      <point x="462" y="514" type="line"/>
    </contour>
  </outline>
</glyph>
<glyph name="f_f_t" format="1">
  <advance width="1093"/>
  <outline>
    <contour>
      <point x="809" y="475" type="line"/>
      <point x="809" y="112" type="line" smooth="yes"/>
      <point x="809" y="35"/>
      <point x="863" y="-10"/>
      <point x="955" y="-10" type="curve" smooth="yes"/>
      <point x="1023" y="-10"/>
      <point x="1069" y="15"/>
      <point x="1087" y="61" type="curve"/>
      <point x="1066" y="90" type="line"/>
      <point x="1052" y="65"/>
      <point x="1034" y="54"/>
      <point x="1007" y="54" type="curve" smooth="yes"/>
      <point x="965" y="54"/>
      <point x="948" y="86"/>
      <point x="948" y="168" type="curve" smooth="yes"/>
      <point x="948" y="475" type="line"/>
      <point x="1063" y="475" type="line"/>
      <point x="1063" y="530" type="line"/>
      <point x="948" y="530" type="line"/>
      <point x="948" y="651" type="line"/>
      <point x="897" y="651" type="line"/>
      <point x="875" y="591"/>
      <point x="806" y="530"/>
      <point x="741" y="530" type="curve" smooth="yes"/>
      <point x="599" y="530" type="line"/>
      <point x="599" y="592" type="line" smooth="yes"/>
      <point x="599.0" y="653.112312078"/>
      <point x="606.844391278" y="695.398085089"/>
      <point x="620.535720135" y="723.546992935" type="curve" smooth="yes"/>
      <point x="637.761293585" y="758.962187814"/>
      <point x="664.242041945" y="772.0"/>
      <point x="696" y="772" type="curve" smooth="yes"/>
      <point x="716" y="772"/>
      <point x="728" y="763"/>
      <point x="755" y="728" type="curve" smooth="yes"/>
      <point x="775" y="702"/>
      <point x="798" y="688"/>
      <point x="830" y="688" type="curve" smooth="yes"/>
      <point x="857" y="688"/>
      <point x="880" y="705"/>
      <point x="880" y="741" type="curve" smooth="yes"/>
      <point x="880" y="795"/>
      <point x="821" y="830"/>
      <point x="730" y="830" type="curve" smooth="yes"/>
      <point x="639" y="830"/>
      <point x="545" y="801"/>
      <point x="496" y="757" type="curve"/>
      <point x="461" y="781"/>
      <point x="429" y="790"/>
      <point x="379" y="790" type="curve" smooth="yes"/>
      <point x="223" y="790"/>
      <point x="124" y="696"/>
      <point x="124" y="546" type="curve" smooth="yes"/>
      <point x="124" y="530" type="line"/>
      <point x="17" y="530" type="line"/>
      <point x="17" y="475" type="line"/>
      <point x="124" y="475" type="line"/>
      <point x="124" y="158" type="line" smooth="yes"/>
      <point x="124" y="57"/>
      <point x="117" y="40"/>
      <point x="35" y="40" type="curve"/>
      <point x="35" y="0" type="line"/>
      <point x="338" y="0" type="line"/>
      <point x="338" y="40" type="line"/>
      <point x="279" y="40"/>
      <point x="263" y="67"/>
      <point x="263" y="166" type="curve" smooth="yes"/>
      <point x="263" y="475" type="line"/>
      <point x="460" y="475" type="line"/>
      <point x="460" y="158" type="line" smooth="yes"/>
      <point x="460" y="59"/>
      <point x="452" y="40"/>
      <point x="399" y="40" type="curve"/>
      <point x="399" y="0" type="line"/>
      <point x="698" y="0" type="line"/>
      <point x="698" y="40" type="line"/>
      <point x="619" y="40"/>
      <point x="599" y="66"/>
      <point x="599" y="166" type="curve" smooth="yes"/>
      <point x="599" y="475" type="line"/>
    </contour>
    <contour>
      <point x="263" y="530" type="line"/>
      <point x="263" y="552" type="line" smooth="yes"/>
      <point x="263.0" y="586.607404947"/>
      <point x="264.93529717" y="616.791273506"/>
      <point x="269.393396886" y="642.04802964" type="curve" smooth="yes"/>
      <point x="279.620690899" y="699.98936951"/>
      <point x="303.125144839" y="732.0"/>
      <point x="347" y="732" type="curve" smooth="yes"/>
      <point x="377.066568732" y="732.0"/>
      <point x="402.750873" y="723.23547107"/>
      <point x="433.959653835" y="690.846301661" type="curve" smooth="yes"/>
      <point x="442.194471712" y="682.300023846"/>
      <point x="450.81392169" y="672.108921409"/>
      <point x="460" y="660" type="curve"/>
      <point x="460" y="530" type="line"/>
    </contour>
  </outline>
</glyph>
<glyph name="f_t" format="1">
  <advance width="774"/>
  <outline>
    <contour>
      <point x="490" y="475" type="line"/>
      <point x="490" y="112" type="line" smooth="yes"/>
      <point x="490" y="35"/>
      <point x="544" y="-10"/>
      <point x="636" y="-10" type="curve" smooth="yes"/>
      <point x="704" y="-10"/>
      <point x="750" y="15"/>
      <point x="768" y="61" type="curve"/>
      <point x="747" y="90" type="line"/>
      <point x="733" y="65"/>
      <point x="715" y="54"/>
      <point x="688" y="54" type="curve" smooth="yes"/>
      <point x="646" y="54"/>
      <point x="629" y="86"/>
      <point x="629" y="168" type="curve" smooth="yes"/>
      <point x="629" y="475" type="line"/>
      <point x="744" y="475" type="line"/>
      <point x="744" y="530" type="line"/>
      <point x="629" y="530" type="line"/>
      <point x="629" y="651" type="line"/>
      <point x="578" y="651" type="line"/>
      <point x="556" y="590"/>
      <point x="484" y="530"/>
      <point x="417" y="530" type="curve"/>
      <point x="264" y="530" type="line"/>
      <point x="264" y="592" type="line" smooth="yes"/>
      <point x="264.0" y="706.111284333"/>
      <point x="297.917640742" y="774.0"/>
      <point x="350" y="774" type="curve" smooth="yes"/>
      <point x="369" y="774"/>
      <point x="386" y="767"/>
      <point x="402" y="748" type="curve" smooth="yes"/>
      <point x="438" y="705"/>
      <point x="450" y="692"/>
      <point x="474" y="692" type="curve" smooth="yes"/>
      <point x="508" y="692"/>
      <point x="534" y="715"/>
      <point x="534" y="745" type="curve" smooth="yes"/>
      <point x="534" y="794"/>
      <point x="468" y="830"/>
      <point x="378" y="830" type="curve" smooth="yes"/>
      <point x="227" y="830"/>
      <point x="125" y="731"/>
      <point x="125" y="586" type="curve" smooth="yes"/>
      <point x="125" y="530" type="line"/>
      <point x="17" y="530" type="line"/>
      <point x="17" y="475" type="line"/>
      <point x="125" y="475" type="line"/>
      <point x="125" y="158" type="line" smooth="yes"/>
      <point x="125" y="57"/>
      <point x="115" y="44"/>
      <point x="35" y="40" type="curve"/>
      <point x="35" y="0" type="line"/>
      <point x="373" y="0" type="line"/>
      <point x="373" y="40" type="line"/>
      <point x="285" y="42"/>
      <point x="264" y="66"/>
      <point x="264" y="166" type="curve" smooth="yes"/>
      <point x="264" y="475" type="line"/>
    </contour>
  </outline>
</glyph>
<glyph name="tilde.cap" format="1">
  <advance width="401"/>
  <outline>
    <contour>
      <point x="57" y="828" type="line"/>
      <point x="67" y="858"/>
      <point x="78" y="868"/>
      <point x="101" y="868" type="curve" smooth="yes"/>
      <point x="150.942067284" y="868.0"/>
      <point x="230.10376034" y="820.0"/>
      <point x="273" y="820" type="curve" smooth="yes"/>
      <point x="333.709252048" y="820.0"/>
      <point x="380.115478561" y="888.808349928"/>
      <point x="390" y="958" type="curve"/>
      <point x="345" y="958" type="line"/>
      <point x="335" y="927"/>
      <point x="321" y="916"/>
      <point x="296" y="916" type="curve" smooth="yes"/>
      <point x="256.124065032" y="916.0"/>
      <point x="164.633617512" y="962.0"/>
      <point x="130" y="962" type="curve" smooth="yes"/>
      <point x="73" y="962"/>
      <point x="24" y="906"/>
      <point x="11" y="828" type="curve"/>
    </contour>
    <contour>
      <point x="202" y="830" type="move" name="_topcap"/>
    </contour>
  </outline>
</glyph>
